<svg width="406" height="162" viewBox="0 0 406 162" fill="none" xmlns="http://www.w3.org/2000/svg">
<g clip-path="url(#clip0)">
<g filter="url(#filter0_d)">
<path d="M51.302 109.109L61.7741 98.6163C62.9597 97.4273 62.9597 95.5021 61.7741 94.3131L34.0735 66.5595C32.8879 65.3705 30.9643 65.3705 29.7788 66.5595L19.3067 77.0521C18.1211 78.2411 18.1211 80.1663 19.3067 81.3553L47.0073 109.109C48.1929 110.298 50.1148 110.298 51.302 109.109Z" fill="url(#paint0_linear)"/>
<path d="M47.096 109.184L36.4651 98.5326C35.3222 97.388 35.3222 95.5327 36.4651 94.3882L76.2504 54.5242C77.3933 53.3796 79.2452 53.3796 80.3863 54.5242L91.0173 65.1757C92.1602 66.3202 92.1602 68.1755 91.0173 69.3201L51.2319 109.184C50.0907 110.327 48.2389 110.327 47.096 109.184Z" fill="url(#paint1_linear)"/>
</g>
</g>
<path d="M137.227 97H133.965V78.2109C133.965 76.7266 134.056 74.9102 134.238 72.7617H134.16C133.848 74.0247 133.568 74.9297 133.32 75.4766L123.75 97H122.148L112.598 75.6328C112.324 75.0078 112.044 74.0508 111.758 72.7617H111.68C111.784 73.8815 111.836 75.7109 111.836 78.25V97H108.672V68.9922H113.008L121.602 88.5234C122.266 90.0208 122.695 91.1406 122.891 91.8828H123.008C123.568 90.3464 124.017 89.2005 124.355 88.4453L133.125 68.9922H137.227V97ZM146.07 71.9219C145.497 71.9219 145.009 71.7266 144.605 71.3359C144.202 70.9453 144 70.4505 144 69.8516C144 69.2526 144.202 68.7578 144.605 68.3672C145.009 67.9635 145.497 67.7617 146.07 67.7617C146.656 67.7617 147.151 67.9635 147.555 68.3672C147.971 68.7578 148.18 69.2526 148.18 69.8516C148.18 70.4245 147.971 70.9128 147.555 71.3164C147.151 71.7201 146.656 71.9219 146.07 71.9219ZM147.633 97H144.43V77H147.633V97ZM168 96.082C166.464 97.0065 164.641 97.4688 162.531 97.4688C159.68 97.4688 157.375 96.5443 155.617 94.6953C153.872 92.8333 153 90.4245 153 87.4688C153 84.1745 153.944 81.5312 155.832 79.5391C157.72 77.5339 160.24 76.5312 163.391 76.5312C165.148 76.5312 166.698 76.8568 168.039 77.5078V80.7891C166.555 79.7474 164.966 79.2266 163.273 79.2266C161.229 79.2266 159.549 79.9622 158.234 81.4336C156.932 82.8919 156.281 84.8125 156.281 87.1953C156.281 89.5391 156.893 91.388 158.117 92.7422C159.354 94.0964 161.008 94.7734 163.078 94.7734C164.823 94.7734 166.464 94.194 168 93.0352V96.082ZM183.523 80.2422C182.964 79.8125 182.156 79.5977 181.102 79.5977C179.734 79.5977 178.589 80.2422 177.664 81.5312C176.753 82.8203 176.297 84.5781 176.297 86.8047V97H173.094V77H176.297V81.1211H176.375C176.831 79.7148 177.527 78.6211 178.465 77.8398C179.402 77.0456 180.451 76.6484 181.609 76.6484C182.443 76.6484 183.081 76.7396 183.523 76.9219V80.2422ZM195.609 97.4688C192.654 97.4688 190.29 96.5378 188.52 94.6758C186.762 92.8008 185.883 90.3203 185.883 87.2344C185.883 83.875 186.801 81.2513 188.637 79.3633C190.473 77.4753 192.953 76.5312 196.078 76.5312C199.06 76.5312 201.384 77.4492 203.051 79.2852C204.73 81.1211 205.57 83.6667 205.57 86.9219C205.57 90.112 204.665 92.6706 202.855 94.5977C201.059 96.5117 198.643 97.4688 195.609 97.4688ZM195.844 79.2266C193.786 79.2266 192.159 79.9297 190.961 81.3359C189.763 82.7292 189.164 84.6562 189.164 87.1172C189.164 89.487 189.77 91.3555 190.98 92.7227C192.191 94.0898 193.812 94.7734 195.844 94.7734C197.914 94.7734 199.503 94.1029 200.609 92.7617C201.729 91.4206 202.289 89.513 202.289 87.0391C202.289 84.5391 201.729 82.612 200.609 81.2578C199.503 79.9036 197.914 79.2266 195.844 79.2266ZM209.727 96.2773V92.8398C211.471 94.1289 213.392 94.7734 215.488 94.7734C218.301 94.7734 219.707 93.8359 219.707 91.9609C219.707 91.4271 219.583 90.9779 219.336 90.6133C219.102 90.2357 218.776 89.9036 218.359 89.6172C217.956 89.3307 217.474 89.0768 216.914 88.8555C216.367 88.6211 215.775 88.3802 215.137 88.1328C214.251 87.7812 213.47 87.4297 212.793 87.0781C212.129 86.7135 211.569 86.3099 211.113 85.8672C210.671 85.4115 210.332 84.8971 210.098 84.3242C209.876 83.7513 209.766 83.0807 209.766 82.3125C209.766 81.375 209.98 80.5482 210.41 79.832C210.84 79.1029 211.413 78.4974 212.129 78.0156C212.845 77.5208 213.659 77.1497 214.57 76.9023C215.495 76.6549 216.445 76.5312 217.422 76.5312C219.154 76.5312 220.703 76.8307 222.07 77.4297V80.6719C220.599 79.7083 218.906 79.2266 216.992 79.2266C216.393 79.2266 215.853 79.2982 215.371 79.4414C214.889 79.5716 214.473 79.7604 214.121 80.0078C213.783 80.2552 213.516 80.5547 213.32 80.9062C213.138 81.2448 213.047 81.6224 213.047 82.0391C213.047 82.5599 213.138 82.9961 213.32 83.3477C213.516 83.6992 213.796 84.0117 214.16 84.2852C214.525 84.5586 214.967 84.806 215.488 85.0273C216.009 85.2487 216.602 85.4896 217.266 85.75C218.151 86.0885 218.945 86.4401 219.648 86.8047C220.352 87.1562 220.951 87.5599 221.445 88.0156C221.94 88.4583 222.318 88.9727 222.578 89.5586C222.852 90.1445 222.988 90.8411 222.988 91.6484C222.988 92.638 222.767 93.4974 222.324 94.2266C221.895 94.9557 221.315 95.5612 220.586 96.043C219.857 96.5247 219.017 96.8828 218.066 97.1172C217.116 97.3516 216.12 97.4688 215.078 97.4688C213.021 97.4688 211.237 97.0716 209.727 96.2773ZM236.539 97.4688C233.583 97.4688 231.22 96.5378 229.449 94.6758C227.691 92.8008 226.812 90.3203 226.812 87.2344C226.812 83.875 227.73 81.2513 229.566 79.3633C231.402 77.4753 233.883 76.5312 237.008 76.5312C239.99 76.5312 242.314 77.4492 243.98 79.2852C245.66 81.1211 246.5 83.6667 246.5 86.9219C246.5 90.112 245.595 92.6706 243.785 94.5977C241.988 96.5117 239.573 97.4688 236.539 97.4688ZM236.773 79.2266C234.716 79.2266 233.089 79.9297 231.891 81.3359C230.693 82.7292 230.094 84.6562 230.094 87.1172C230.094 89.487 230.699 91.3555 231.91 92.7227C233.121 94.0898 234.742 94.7734 236.773 94.7734C238.844 94.7734 240.432 94.1029 241.539 92.7617C242.659 91.4206 243.219 89.513 243.219 87.0391C243.219 84.5391 242.659 82.612 241.539 81.2578C240.432 79.9036 238.844 79.2266 236.773 79.2266ZM261.75 70.2031C261.125 69.8516 260.415 69.6758 259.621 69.6758C257.382 69.6758 256.262 71.0885 256.262 73.9141V77H260.949V79.7344H256.262V97H253.078V79.7344H249.66V77H253.078V73.7578C253.078 71.6615 253.684 70.0078 254.895 68.7969C256.105 67.5729 257.616 66.9609 259.426 66.9609C260.402 66.9609 261.177 67.0781 261.75 67.3125V70.2031ZM273.934 96.8047C273.178 97.2214 272.182 97.4297 270.945 97.4297C267.443 97.4297 265.691 95.4766 265.691 91.5703V79.7344H262.254V77H265.691V72.1172L268.895 71.082V77H273.934V79.7344H268.895V91.0039C268.895 92.3451 269.122 93.3021 269.578 93.875C270.034 94.4479 270.789 94.7344 271.844 94.7344C272.651 94.7344 273.348 94.513 273.934 94.0703V96.8047ZM306.68 71.9609H298.594V97H295.312V71.9609H287.246V68.9922H306.68V71.9609ZM315.367 97.4688C312.411 97.4688 310.048 96.5378 308.277 94.6758C306.52 92.8008 305.641 90.3203 305.641 87.2344C305.641 83.875 306.559 81.2513 308.395 79.3633C310.23 77.4753 312.711 76.5312 315.836 76.5312C318.818 76.5312 321.142 77.4492 322.809 79.2852C324.488 81.1211 325.328 83.6667 325.328 86.9219C325.328 90.112 324.423 92.6706 322.613 94.5977C320.816 96.5117 318.401 97.4688 315.367 97.4688ZM315.602 79.2266C313.544 79.2266 311.917 79.9297 310.719 81.3359C309.521 82.7292 308.922 84.6562 308.922 87.1172C308.922 89.487 309.527 91.3555 310.738 92.7227C311.949 94.0898 313.57 94.7734 315.602 94.7734C317.672 94.7734 319.26 94.1029 320.367 92.7617C321.487 91.4206 322.047 89.513 322.047 87.0391C322.047 84.5391 321.487 82.612 320.367 81.2578C319.26 79.9036 317.672 79.2266 315.602 79.2266ZM342.352 97V68.9922H350.086C359.956 68.9922 364.891 73.543 364.891 82.6445C364.891 86.9674 363.517 90.444 360.77 93.0742C358.035 95.6914 354.37 97 349.773 97H342.352ZM345.633 71.9609V94.0312H349.812C353.484 94.0312 356.342 93.0482 358.387 91.082C360.431 89.1159 361.453 86.3294 361.453 82.7227C361.453 75.5482 357.638 71.9609 350.008 71.9609H345.633ZM378.578 97.4688C375.622 97.4688 373.259 96.5378 371.488 94.6758C369.73 92.8008 368.852 90.3203 368.852 87.2344C368.852 83.875 369.77 81.2513 371.605 79.3633C373.441 77.4753 375.922 76.5312 379.047 76.5312C382.029 76.5312 384.353 77.4492 386.02 79.2852C387.699 81.1211 388.539 83.6667 388.539 86.9219C388.539 90.112 387.634 92.6706 385.824 94.5977C384.027 96.5117 381.612 97.4688 378.578 97.4688ZM378.812 79.2266C376.755 79.2266 375.128 79.9297 373.93 81.3359C372.732 82.7292 372.133 84.6562 372.133 87.1172C372.133 89.487 372.738 91.3555 373.949 92.7227C375.16 94.0898 376.781 94.7734 378.812 94.7734C380.883 94.7734 382.471 94.1029 383.578 92.7617C384.698 91.4206 385.258 89.513 385.258 87.0391C385.258 84.5391 384.698 82.612 383.578 81.2578C382.471 79.9036 380.883 79.2266 378.812 79.2266Z" fill="black"/>
<defs>
<filter id="filter0_d" x="14.4175" y="51.6658" width="81.457" height="64.3754" filterUnits="userSpaceOnUse" color-interpolation-filters="sRGB">
<feFlood flood-opacity="0" result="BackgroundImageFix"/>
<feColorMatrix in="SourceAlpha" type="matrix" values="0 0 0 0 0 0 0 0 0 0 0 0 0 0 0 0 0 0 127 0"/>
<feOffset dy="2"/>
<feGaussianBlur stdDeviation="2"/>
<feColorMatrix type="matrix" values="0 0 0 0 0 0 0 0 0 0 0 0 0 0 0 0 0 0 0.19 0"/>
<feBlend mode="normal" in2="BackgroundImageFix" result="effect1_dropShadow"/>
<feBlend mode="normal" in="SourceGraphic" in2="effect1_dropShadow" result="shape"/>
</filter>
<linearGradient id="paint0_linear" x1="13.5" y1="74" x2="57" y2="96" gradientUnits="userSpaceOnUse">
<stop stop-color="#185ABD"/>
<stop offset="1" stop-color="#3272D1"/>
</linearGradient>
<linearGradient id="paint1_linear" x1="104.5" y1="44.5" x2="36" y2="110" gradientUnits="userSpaceOnUse">
<stop stop-color="#57BFF5"/>
<stop offset="1" stop-color="#2988E6"/>
</linearGradient>
<clipPath id="clip0">
<rect width="82" height="82" fill="white" transform="translate(15 40)"/>
</clipPath>
</defs>
</svg>
