<?xml version="1.0" encoding="UTF-8"?>
<svg width="1060px" height="240px" viewBox="0 0 1060 240" version="1.1" xmlns="http://www.w3.org/2000/svg" xmlns:xlink="http://www.w3.org/1999/xlink">
    <!-- Generator: Sketch 64 (93537) - https://sketch.com -->
    <title>logo</title>
    <desc>Created with Sketch.</desc>
    <g id="logo" stroke="none" stroke-width="1" fill="none" fill-rule="evenodd">
        <path d="M115.549,130.646 C134.312636,148.944182 137.514106,178.40387 122.481781,200.387505 L121.019,202.426 L117.609,206.976 L109.539,196.256 C94.239,175.896 97.169,147.506 115.549,130.646 Z M600.003,81.851 C610.083,81.851 618.673,85.431 625.783,92.601 C632.883,99.771 636.433,108.391 636.433,118.471 L636.433,138.621 C636.433,141.341 635.533,143.631 633.723,145.511 C631.913,147.381 629.653,148.321 626.943,148.321 L582.953,148.321 C582.183,148.321 581.793,148.631 581.793,149.291 L581.793,158.981 C581.793,163.751 583.493,167.851 586.923,171.281 C590.343,174.711 594.453,176.421 599.233,176.421 L600.003,176.421 C606.843,176.421 611.953,173.381 615.313,167.311 C617.123,163.951 619.903,162.271 623.643,162.271 C626.363,162.271 628.613,163.201 630.433,165.081 C632.233,166.951 633.143,169.181 633.143,171.761 C633.143,173.451 632.753,174.991 631.983,176.421 C628.883,182.231 624.453,186.851 618.703,190.261 C612.963,193.691 606.723,195.401 600.003,195.401 L599.233,195.401 C589.153,195.401 580.563,191.861 573.463,184.751 C566.353,177.651 562.803,169.051 562.803,158.981 L562.803,118.471 C562.803,108.391 566.353,99.771 573.463,92.601 C580.563,85.431 589.153,81.851 599.233,81.851 L600.003,81.851 Z M894.115,81.851 C904.185,81.851 912.775,85.431 919.885,92.601 C926.985,99.771 930.535,108.391 930.535,118.471 L930.535,138.621 C930.535,141.341 929.635,143.631 927.825,145.511 C926.015,147.381 923.765,148.321 921.045,148.321 L877.055,148.321 C876.285,148.321 875.895,148.631 875.895,149.291 L875.895,158.981 C875.895,163.751 877.605,167.851 881.025,171.281 C884.445,174.711 888.555,176.421 893.335,176.421 L894.115,176.421 C900.955,176.421 906.055,173.381 909.415,167.311 C911.225,163.951 914.005,162.271 917.755,162.271 C920.465,162.271 922.725,163.201 924.535,165.081 C926.345,166.951 927.245,169.181 927.245,171.761 C927.245,173.451 926.855,174.991 926.085,176.421 C922.985,182.231 918.555,186.851 912.815,190.261 C907.065,193.691 900.825,195.401 894.115,195.401 L893.335,195.401 C883.265,195.401 874.665,191.861 867.565,184.751 C860.465,177.651 856.905,169.051 856.905,158.981 L856.905,118.471 C856.905,108.391 860.465,99.771 867.565,92.601 C874.665,85.431 883.265,81.851 893.335,81.851 L894.115,81.851 Z M1004.144,81.851 C1014.224,81.851 1022.804,85.431 1029.914,92.601 C1037.014,99.771 1040.564,108.391 1040.564,118.471 L1040.564,138.621 C1040.564,141.341 1039.674,143.631 1037.864,145.511 C1036.044,147.381 1033.794,148.321 1031.074,148.321 L987.094,148.321 C986.324,148.321 985.934,148.631 985.934,149.291 L985.934,158.981 C985.934,163.751 987.634,167.851 991.054,171.281 C994.484,174.711 998.584,176.421 1003.374,176.421 L1004.144,176.421 C1010.984,176.421 1016.084,173.381 1019.454,167.311 C1021.264,163.951 1024.034,162.271 1027.784,162.271 C1030.504,162.271 1032.754,163.201 1034.564,165.081 C1036.374,166.951 1037.274,169.181 1037.274,171.761 C1037.274,173.451 1036.894,174.991 1036.114,176.421 C1033.024,182.231 1028.584,186.851 1022.844,190.261 C1017.094,193.691 1010.864,195.401 1004.144,195.401 L1003.374,195.401 C993.294,195.401 984.704,191.861 977.594,184.751 C970.494,177.651 966.934,169.051 966.934,158.981 L966.934,118.471 C966.934,108.391 970.494,99.771 977.594,92.601 C984.704,85.431 993.294,81.851 1003.374,81.851 L1004.144,81.851 Z M809.997,82.233 C814.637,82.233 819.167,83.123 823.557,84.893 L826.857,86.113 C831.117,87.533 833.247,90.503 833.247,95.023 C833.247,97.613 832.307,99.843 830.427,101.713 C828.557,103.583 826.257,104.523 823.547,104.523 C822.507,104.523 821.477,104.343 820.437,103.993 L817.137,102.823 C814.807,101.763 812.337,101.223 809.737,101.223 C805.317,101.223 801.227,102.593 797.457,105.313 C791.477,109.593 788.487,115.433 788.487,122.823 L788.487,185.483 C788.487,188.203 787.547,190.483 785.707,192.293 C783.847,194.113 781.577,195.023 778.887,195.023 C776.327,195.023 774.127,194.113 772.267,192.293 C770.427,190.483 769.497,188.213 769.497,185.493 L769.497,122.873 C769.497,108.743 775.237,97.663 786.737,89.623 C793.717,84.703 801.467,82.233 809.997,82.233 Z M366.342,82.24 C368.932,82.24 371.162,83.18 373.032,85.06 C374.902,86.94 375.842,89.17 375.842,91.76 L375.842,185.49 C375.842,188.21 374.902,190.48 373.032,192.3 C371.162,194.11 368.932,195.02 366.342,195.02 C363.762,195.02 361.532,194.11 359.662,192.3 C357.782,190.48 356.852,188.21 356.852,185.49 L356.852,91.76 C356.852,89.17 357.782,86.94 359.662,85.06 C361.532,83.18 363.762,82.24 366.342,82.24 Z M493.618,82.24 C502.528,82.24 510.118,85.38 516.388,91.67 C522.658,97.96 525.788,105.57 525.788,114.51 L525.788,185.49 C525.788,188.21 524.878,190.48 523.078,192.3 C521.258,194.11 519.008,195.02 516.288,195.02 C513.708,195.02 511.478,194.11 509.608,192.3 C507.728,190.48 506.798,188.2 506.798,185.48 L506.798,114.46 C506.798,110.83 505.508,107.72 502.918,105.12 C500.338,102.53 497.238,101.23 493.618,101.23 C489.998,101.23 486.898,102.53 484.318,105.12 C481.728,107.72 480.438,110.83 480.438,114.46 L480.438,185.48 C480.438,188.2 479.508,190.48 477.638,192.3 C475.758,194.11 473.528,195.02 470.948,195.02 C468.358,195.02 466.138,194.11 464.268,192.3 C462.388,190.48 461.448,188.2 461.448,185.48 L461.448,114.46 C461.448,110.83 460.158,107.72 457.578,105.12 C454.988,102.53 451.888,101.23 448.278,101.23 C444.658,101.23 441.558,102.53 438.978,105.12 C436.388,107.72 435.098,110.83 435.098,114.46 L435.098,185.48 C435.098,188.2 434.158,190.48 432.288,192.3 C430.408,194.11 428.188,195.02 425.598,195.02 C422.888,195.02 420.628,194.11 418.818,192.3 C417.008,190.48 416.108,188.21 416.108,185.49 L416.108,114.51 C416.108,105.57 419.238,97.96 425.508,91.67 C431.768,85.38 439.358,82.24 448.278,82.24 C456.668,82.24 463.968,85.14 470.168,90.95 C470.428,91.21 470.688,91.34 470.948,91.34 C471.208,91.34 471.458,91.21 471.718,90.95 C477.918,85.14 485.218,82.24 493.618,82.24 Z M313.959,44.447 C316.679,44.447 318.969,45.387 320.839,47.257 C322.709,49.137 323.649,51.357 323.649,53.947 C323.649,56.527 322.709,58.757 320.839,60.627 C318.969,62.497 316.679,63.437 313.959,63.437 L292.449,63.437 C291.679,63.437 291.289,63.827 291.289,64.597 L291.289,185.517 C291.289,188.107 290.349,190.337 288.479,192.207 C286.599,194.087 284.379,195.017 281.789,195.017 C279.209,195.017 276.979,194.087 275.109,192.207 C273.229,190.337 272.299,188.107 272.299,185.517 L272.299,64.597 C272.299,63.827 271.909,63.437 271.139,63.437 L249.629,63.437 C246.909,63.437 244.619,62.497 242.749,60.627 C240.869,58.757 239.939,56.527 239.939,53.947 C239.939,51.357 240.869,49.137 242.749,47.257 C244.619,45.387 246.909,44.447 249.629,44.447 L313.959,44.447 Z M736.24,44.447 C738.96,44.447 741.25,45.387 743.13,47.257 C745,49.137 745.94,51.357 745.94,53.947 C745.94,56.527 745,58.757 743.13,60.627 C741.25,62.497 738.96,63.437 736.24,63.437 L714.74,63.437 C713.97,63.437 713.58,63.827 713.58,64.597 L713.58,185.517 C713.58,188.107 712.64,190.337 710.76,192.207 C708.89,194.087 706.66,195.017 704.07,195.017 C701.5,195.017 699.27,194.087 697.4,192.207 C695.52,190.337 694.58,188.107 694.58,185.517 L694.58,64.597 C694.58,63.827 694.19,63.437 693.42,63.437 L671.91,63.437 C669.2,63.437 666.91,62.497 665.03,60.627 C663.16,58.757 662.22,56.527 662.22,53.947 C662.22,51.357 663.16,49.137 665.03,47.257 C666.91,45.387 669.2,44.447 671.91,44.447 L736.24,44.447 Z M107.24,123.974 C97.2,147.474 74.17,161.984 49.66,161.984 C43.72,161.984 37.6918367,161.131755 31.739242,159.345399 L28.77,158.374 L20,155.274 L33.84,136.854 C51.22,113.764 83.4,108.384 107.24,123.974 Z M186.473701,135.39333 L187.963,137.278 L197.013,149.308 L191.563,151.238 C185.543,153.368 179.403,154.378 173.373,154.378 C153.023,154.378 133.883,142.878 124.563,124.088 C145.011387,112.465419 171.210034,117.007251 186.473701,135.39333 Z M600.003,100.841 L599.233,100.841 C594.453,100.841 590.343,102.561 586.923,106.011 C583.493,109.461 581.793,113.651 581.793,118.591 L581.793,128.351 C581.793,129.001 582.183,129.331 582.953,129.331 L616.283,129.331 C617.063,129.331 617.443,129.001 617.443,128.351 L617.443,118.591 C617.443,113.651 615.733,109.461 612.313,106.011 C608.893,102.561 604.783,100.841 600.003,100.841 Z M894.115,100.841 L893.335,100.841 C888.555,100.841 884.445,102.561 881.025,106.011 C877.605,109.461 875.895,113.651 875.895,118.591 L875.895,128.351 C875.895,129.001 876.285,129.331 877.055,129.331 L910.385,129.331 C911.165,129.331 911.555,129.001 911.555,128.351 L911.555,118.591 C911.555,113.651 909.835,109.461 906.415,106.011 C902.995,102.561 898.885,100.841 894.115,100.841 Z M1004.144,100.841 L1003.374,100.841 C998.584,100.841 994.484,102.561 991.054,106.011 C987.634,109.461 985.934,113.651 985.934,118.591 L985.934,128.351 C985.934,129.001 986.324,129.331 987.094,129.331 L1020.424,129.331 C1021.194,129.331 1021.584,129.001 1021.584,128.351 L1021.584,118.591 C1021.584,113.651 1019.864,109.461 1016.444,106.011 C1013.024,102.561 1008.914,100.841 1004.144,100.841 Z M48.62,32.5 L70.55,40.26 C101.47,51.19 118.41,83.92 110.28,115.07 C76.8986667,114.551778 49.8463802,87.9429679 48.660541,54.7248824 L48.62,52.45 L48.62,32.5 Z M173.917,41.781 L173.917,52.451 C173.917,83.801 150.887,109.771 120.817,114.371 C113.412676,87.7407297 127.204436,59.5863104 152.999797,49.232222 L155.177,48.411 L173.917,41.781 Z M366.342,44.06 C369.442,44.06 372.122,45.16 374.382,47.36 C376.652,49.55 377.782,52.27 377.782,55.49 C377.782,58.6 376.652,61.28 374.382,63.54 C372.122,65.8 369.442,66.93 366.342,66.93 C363.242,66.93 360.562,65.8 358.302,63.54 C356.042,61.28 354.912,58.6 354.912,55.49 C354.912,52.27 356.042,49.55 358.302,47.36 C360.562,45.16 363.242,44.06 366.342,44.06 Z" id="Shape" fill="#2ECC87"></path>
    </g>
</svg>